<svg width="33" height="32" viewBox="0 0 33 32" fill="none" xmlns="http://www.w3.org/2000/svg">
<path d="M23.6994 18.1179C23.0595 18.1184 22.4263 18.2513 21.8372 18.5086C21.2482 18.7659 20.7154 19.1424 20.2704 19.6157L14.005 16.2388C14.066 15.9279 14.0973 15.6116 14.0983 15.2944C14.0904 15.1076 14.0721 14.9214 14.0434 14.7368L20.0345 12.094C20.7611 12.9741 21.7657 13.5626 22.872 13.7562C23.9782 13.9498 25.1153 13.736 26.0837 13.1524C27.052 12.5688 27.7896 11.6528 28.167 10.5651C28.5444 9.47745 28.5374 8.2877 28.1473 7.2048C27.7572 6.1219 27.0088 5.21509 26.0337 4.6436C25.0586 4.07211 23.9191 3.87249 22.8152 4.07979C21.7113 4.28709 20.7136 4.88806 19.9974 5.77716C19.2812 6.66626 18.8923 7.78665 18.8988 8.94158C18.9065 9.13075 18.9248 9.31929 18.9537 9.50628L12.964 12.142C12.3427 11.3773 11.5108 10.8243 10.578 10.5562C9.64515 10.2881 8.65527 10.3173 7.73893 10.64C6.82259 10.9628 6.02284 11.5638 5.44518 12.364C4.86753 13.1641 4.53912 14.1257 4.50328 15.1219C4.46744 16.118 4.72586 17.102 5.24444 17.9439C5.76302 18.7858 6.51739 19.4461 7.40803 19.8377C8.29868 20.2293 9.28374 20.3338 10.2333 20.1374C11.1828 19.941 12.0522 19.453 12.7267 18.7376L18.9894 22.1145C18.9293 22.4255 18.8989 22.7418 18.8988 23.0589C18.8988 24.0362 19.1804 24.9915 19.7079 25.804C20.2354 26.6166 20.9851 27.2499 21.8623 27.6239C22.7395 27.9979 23.7047 28.0957 24.636 27.9051C25.5672 27.7144 26.4226 27.2438 27.0939 26.5528C27.7653 25.8618 28.2225 24.9814 28.4078 24.0229C28.593 23.0644 28.4979 22.0709 28.1346 21.1681C27.7712 20.2652 27.1559 19.4935 26.3665 18.9506C25.577 18.4076 24.6489 18.1179 23.6994 18.1179ZM23.6994 6.82398C24.1063 6.82398 24.5041 6.94818 24.8424 7.18086C25.1808 7.41355 25.4445 7.74427 25.6002 8.13121C25.7559 8.51815 25.7967 8.94393 25.7173 9.35471C25.6379 9.76548 25.4419 10.1428 25.1542 10.439C24.8665 10.7351 24.4999 10.9368 24.1008 11.0185C23.7017 11.1002 23.288 11.0583 22.9121 10.898C22.5361 10.7377 22.2148 10.4663 21.9888 10.1181C21.7627 9.76982 21.642 9.3604 21.642 8.94158C21.642 8.37996 21.8588 7.84134 22.2446 7.44421C22.6305 7.04708 23.1538 6.82398 23.6994 6.82398ZM9.29768 17.412C8.89077 17.412 8.49299 17.2878 8.15466 17.0551C7.81632 16.8224 7.55262 16.4917 7.3969 16.1048C7.24118 15.7178 7.20044 15.292 7.27982 14.8813C7.35921 14.4705 7.55516 14.0932 7.84289 13.797C8.13062 13.5009 8.49721 13.2992 8.8963 13.2175C9.2954 13.1358 9.70907 13.1777 10.085 13.338C10.461 13.4983 10.7823 13.7697 11.0083 14.1179C11.2344 14.4661 11.3551 14.8756 11.3551 15.2944C11.3527 15.6274 11.2732 15.955 11.1233 16.2501C11.1233 16.2586 11.1109 16.2628 11.1068 16.2699V16.2925C10.9316 16.6299 10.6709 16.9121 10.3524 17.1093C10.0338 17.3064 9.66936 17.411 9.29768 17.412ZM23.6994 25.1765C23.1538 25.1765 22.6305 24.9534 22.2446 24.5563C21.8588 24.1592 21.642 23.6206 21.642 23.0589C21.6441 22.7301 21.7216 22.4065 21.8683 22.1145C21.8683 22.1032 21.8834 22.0947 21.8903 22.0834V22.0608C22.062 21.7302 22.3158 21.4524 22.626 21.2558C22.9361 21.0592 23.2914 20.9509 23.6556 20.9419C24.0197 20.933 24.3796 21.0236 24.6985 21.2047C25.0175 21.3858 25.284 21.6508 25.4708 21.9726C25.6577 22.2944 25.7582 22.6615 25.7621 23.0364C25.766 23.4112 25.6731 23.7805 25.4929 24.1063C25.3128 24.4321 25.0518 24.7029 24.7367 24.8909C24.4216 25.0789 24.0637 25.1775 23.6994 25.1765Z" fill="#050505"/>
</svg>
