<svg width="21" height="98" viewBox="0 0 21 98" fill="none" xmlns="http://www.w3.org/2000/svg">
<path d="M8.75552 0.702173C7.75032 2.31077 4.4999 9.16735 4.92036 29.8412C4.17975 30.026 3.69332 30.6177 3.70908 31.3116L3.91869 40.5427C3.95201 42.01 3.7974 43.4785 3.461 44.9099L3.1399 46.2675C2.60369 48.5417 2.35784 50.8786 2.41088 53.2148L3.26814 90.967C3.28255 91.6016 3.60004 92.1991 4.11521 92.5647L4.58161 92.8952C4.76042 93.0209 4.87007 93.2277 4.87505 93.447L4.93777 93.8309L4.43016 93.8425C3.33101 93.8674 2.45715 94.7878 2.48229 95.8951C2.50741 97.0013 3.42218 97.8821 4.52133 97.8571L18.8053 97.5328C19.9054 97.5078 20.7793 96.5874 20.7541 95.4802C20.729 94.3739 19.8142 93.4931 18.7141 93.5181L18.2627 93.5827L18.2527 93.1432C18.2477 92.924 18.3479 92.7124 18.5208 92.5787L18.9698 92.2294C19.4708 91.8417 19.7609 91.2304 19.7464 90.5948L18.8892 52.8426C18.8361 50.5054 18.4844 48.181 17.8446 45.9357L17.4632 44.594C17.0613 43.1844 16.8412 41.7234 16.8078 40.252L16.594 30.8369C16.58 30.2234 16.1335 29.7123 15.5306 29.6204C15.4373 29.6064 15.3382 29.5573 15.337 29.503C14.7873 8.90557 11.2406 2.22849 10.1665 0.672145C10.0032 0.435373 9.73612 0.29856 9.45134 0.305026C9.16654 0.310487 8.90599 0.460288 8.75552 0.702173ZM8.45382 93.2571L7.54001 53.0138C7.49043 50.8305 7.71871 48.6449 8.21733 46.5205L8.53937 45.1599C8.9122 43.5717 9.08313 41.9428 9.04618 40.3156L8.83801 31.1478L10.5257 31.1095L10.7339 40.2773C10.7675 41.7586 10.6123 43.2423 10.2732 44.6868L9.95214 46.0475C9.41777 48.3145 9.1738 50.6463 9.22669 52.9755L10.1405 93.2188L8.45382 93.2571ZM5.33199 91.8196L4.86661 91.4901C4.68778 91.3634 4.57813 91.1576 4.57315 90.9383L3.7159 53.1862C3.66541 50.9626 3.89883 48.7376 4.40853 46.5728L4.7296 45.2152C5.09353 43.6755 5.25956 42.093 5.22371 40.5141L5.01409 31.283C5.01368 31.2649 5.03735 31.2512 5.04897 31.2349L6.48887 31.2022L6.69704 40.3699C6.7294 41.795 6.58085 43.2221 6.25451 44.6121L5.9325 45.9727C5.38739 48.2953 5.13664 50.6817 5.19083 53.0682L6.09531 92.9001C5.96854 92.4683 5.70484 92.0818 5.33199 91.8196ZM16.2087 44.9535L16.5901 46.2952C17.1985 48.4326 17.5326 50.6457 17.5831 52.8703L18.4404 90.6224C18.4454 90.8417 18.3452 91.0522 18.1713 91.187L17.7214 91.5373C17.2518 91.9042 16.9767 92.4678 16.9582 93.0629L11.1867 93.194L10.2729 52.9507C10.222 50.7111 10.4561 48.47 10.9684 46.29L11.2894 44.9294C11.6495 43.3968 11.8157 41.8234 11.7801 40.2525L11.5719 31.0847L15.291 31.0003L15.5017 40.2787C15.5377 41.8636 15.7754 43.437 16.2087 44.9535Z" fill="url(#paint0_linear_1253_2681)"/>
<path d="M3.66956 96.0764C3.66956 96.0764 4.66141 95.9493 6.15046 95.836C7.63954 95.7247 9.62642 95.6091 11.615 95.568C13.6033 95.5188 15.5933 95.5421 17.086 95.5877C18.5786 95.6332 19.5753 95.7163 19.5753 95.7163C19.5753 95.7163 18.5834 95.8444 17.0944 95.9577C15.6053 96.07 13.6184 96.1836 11.6299 96.2257C9.64154 96.2749 7.65146 96.2496 6.15886 96.2061C4.66616 96.1584 3.66956 96.0764 3.66956 96.0764Z" fill="#FFFEFB"/>
<path d="M10.041 2.28894C10.041 2.28894 10.195 2.68792 10.4073 3.40655C10.6196 4.12418 10.901 5.15921 11.1744 6.41477C11.7443 8.92236 12.294 12.3098 12.7063 15.7155C13.1185 19.1212 13.4022 22.5418 13.5685 25.1099C13.7307 27.678 13.8127 29.3928 13.8127 29.3928L12.5077 29.4224C12.5077 29.4224 12.5079 27.7159 12.4688 25.156C12.4256 22.5962 12.3052 19.1849 12.0579 15.7785C11.8096 12.3741 11.4236 8.97693 10.9754 6.4535C10.7627 5.18951 10.5321 4.14629 10.3546 3.42083C10.1762 2.69438 10.041 2.28894 10.041 2.28894Z" fill="#FFFEFB"/>
<defs>
<linearGradient id="paint0_linear_1253_2681" x1="9.45233" y1="0.304999" x2="11.6638" y2="97.6949" gradientUnits="userSpaceOnUse">
<stop stop-color="#0956B9"/>
<stop offset="1" stop-color="#E7CE32"/>
</linearGradient>
</defs>
</svg>
